<svg width="24" height="24" viewBox="0 0 24 24" fill="none" xmlns="http://www.w3.org/2000/svg">
<circle cx="12" cy="12" r="12" fill="#1E90FF"/>
<path d="M9.54545 11.3158C8.64545 11.3158 7.875 11.0066 7.23409 10.3882C6.59318 9.76975 6.27273 9.02633 6.27273 8.15791C6.27273 7.28949 6.59318 6.54607 7.23409 5.92765C7.875 5.30923 8.64545 5.00002 9.54545 5.00002C10.4455 5.00002 11.2159 5.30923 11.8568 5.92765C12.4977 6.54607 12.8182 7.28949 12.8182 8.15791C12.8182 9.02633 12.4977 9.76975 11.8568 10.3882C11.2159 11.0066 10.4455 11.3158 9.54545 11.3158ZM16.0909 16.8421C16.5545 16.8421 16.9399 16.7105 17.247 16.4474C17.5541 16.1842 17.7142 15.7895 17.7273 15.2632C17.7409 14.8158 17.5876 14.4408 17.2675 14.1382C16.9473 13.8355 16.5551 13.6842 16.0909 13.6842C15.6267 13.6842 15.2381 13.8355 14.925 14.1382C14.6119 14.4408 14.4551 14.8158 14.4545 15.2632C14.454 15.7105 14.6108 16.0855 14.925 16.3882C15.2392 16.6908 15.6278 16.8421 16.0909 16.8421ZM19.8545 20L17.7682 17.9868C17.5227 18.1316 17.2604 18.2403 16.9811 18.3129C16.7018 18.3855 16.4051 18.4216 16.0909 18.4211C15.1909 18.4211 14.4205 18.1118 13.7795 17.4934C13.1386 16.875 12.8182 16.1316 12.8182 15.2632C12.8182 14.3947 13.1386 13.6513 13.7795 13.0329C14.4205 12.4145 15.1909 12.1053 16.0909 12.1053C16.9909 12.1053 17.7614 12.4145 18.4023 13.0329C19.0432 13.6513 19.3636 14.3947 19.3636 15.2632C19.3636 15.5658 19.3263 15.8521 19.2515 16.1221C19.1768 16.3921 19.0642 16.6453 18.9136 16.8816L21 18.8947L19.8545 20ZM3 17.6316V15.4211C3 14.9737 3.11945 14.5626 3.35836 14.1879C3.59727 13.8132 3.91418 13.5269 4.30909 13.329C5.15455 12.9211 6.01364 12.6153 6.88636 12.4116C7.75909 12.2079 8.64545 12.1058 9.54545 12.1053C9.98182 12.1053 10.4217 12.1284 10.8652 12.1747C11.3086 12.2211 11.7483 12.2966 12.1841 12.4013C11.8568 12.8224 11.6081 13.2763 11.4379 13.7632C11.2677 14.25 11.1824 14.75 11.1818 15.2632C11.1818 15.6842 11.2364 16.0955 11.3455 16.4971C11.4545 16.8987 11.6182 17.2768 11.8364 17.6316H3ZM17.7273 8.15791C17.7273 9.02633 17.4068 9.76975 16.7659 10.3882C16.125 11.0066 15.3545 11.3158 14.4545 11.3158C14.3045 11.3158 14.1136 11.2995 13.8818 11.2669C13.65 11.2342 13.4591 11.1979 13.3091 11.1579C13.6773 10.7369 13.9604 10.2697 14.1584 9.75659C14.3564 9.24344 14.4551 8.71054 14.4545 8.15791C14.454 7.60528 14.3553 7.07239 14.1584 6.55923C13.9615 6.04607 13.6784 5.57897 13.3091 5.15791C13.5 5.09213 13.6909 5.04923 13.8818 5.02923C14.0727 5.00923 14.2636 4.99949 14.4545 5.00002C15.3545 5.00002 16.125 5.30923 16.7659 5.92765C17.4068 6.54607 17.7273 7.28949 17.7273 8.15791Z" fill="white"/>
</svg>
