<svg width="24" height="24" viewBox="0 0 24 24" fill="none" xmlns="http://www.w3.org/2000/svg">
<circle cx="12" cy="12" r="12" fill="#1E90FF"/>
<path d="M12 12.625C13.3583 12.625 14.5583 12.95 15.5333 13.375C16.4333 13.775 17 14.675 17 15.65V17H7V15.6583C7 14.675 7.56667 13.775 8.46667 13.3833C9.44167 12.95 10.6417 12.625 12 12.625ZM5.33333 12.8333C6.25 12.8333 7 12.0833 7 11.1667C7 10.25 6.25 9.5 5.33333 9.5C4.41667 9.5 3.66667 10.25 3.66667 11.1667C3.66667 12.0833 4.41667 12.8333 5.33333 12.8333ZM6.275 13.75C5.96667 13.7 5.65833 13.6667 5.33333 13.6667C4.50833 13.6667 3.725 13.8417 3.01667 14.15C2.71476 14.279 2.45744 14.494 2.27668 14.7681C2.09593 15.0422 1.99971 15.3633 2 15.6917V17H5.75V15.6583C5.75 14.9667 5.94167 14.3167 6.275 13.75ZM18.6667 12.8333C19.5833 12.8333 20.3333 12.0833 20.3333 11.1667C20.3333 10.25 19.5833 9.5 18.6667 9.5C17.75 9.5 17 10.25 17 11.1667C17 12.0833 17.75 12.8333 18.6667 12.8333ZM22 15.6917C22 15.0167 21.6 14.4167 20.9833 14.15C20.2526 13.8312 19.4639 13.6666 18.6667 13.6667C18.3417 13.6667 18.0333 13.7 17.725 13.75C18.0583 14.3167 18.25 14.9667 18.25 15.6583V17H22V15.6917ZM12 7C13.3833 7 14.5 8.11667 14.5 9.5C14.5 10.8833 13.3833 12 12 12C10.6167 12 9.5 10.8833 9.5 9.5C9.5 8.11667 10.6167 7 12 7Z" fill="white"/>
</svg>
