<svg width="24" height="24" viewBox="0 0 24 24" fill="none" xmlns="http://www.w3.org/2000/svg">
<circle cx="12" cy="12" r="12" fill="#1E90FF"/>
<path d="M16.9091 13.75V11.125H14.4545V9.375H16.9091V6.75H18.5455V9.375H21V11.125H18.5455V13.75H16.9091ZM9.54545 12C8.64545 12 7.875 11.6573 7.23409 10.9719C6.59318 10.2865 6.27273 9.4625 6.27273 8.5C6.27273 7.5375 6.59318 6.71354 7.23409 6.02813C7.875 5.34271 8.64545 5 9.54545 5C10.4455 5 11.2159 5.34271 11.8568 6.02813C12.4977 6.71354 12.8182 7.5375 12.8182 8.5C12.8182 9.4625 12.4977 10.2865 11.8568 10.9719C11.2159 11.6573 10.4455 12 9.54545 12ZM3 19V16.55C3 16.0542 3.11945 15.5986 3.35836 15.1832C3.59727 14.7679 3.91418 14.4506 4.30909 14.2313C5.15455 13.7792 6.01364 13.4402 6.88636 13.2145C7.75909 12.9887 8.64545 12.8756 9.54545 12.875C10.4455 12.8744 11.3318 12.9876 12.2045 13.2145C13.0773 13.4414 13.9364 13.7803 14.7818 14.2313C15.1773 14.45 15.4945 14.7673 15.7334 15.1832C15.9723 15.5992 16.0915 16.0548 16.0909 16.55V19H3Z" fill="white"/>
</svg>
