<svg version="1.1" id="Layer_1" xmlns="http://www.w3.org/2000/svg" xmlns:xlink="http://www.w3.org/1999/xlink" x="0px" y="0px"
	 width="100%" viewBox="0 0 1536 239" enable-background="new 0 0 1536 239" xml:space="preserve">
<path fill="#000000" opacity="1.000000" stroke="none" 
	d="
M1537.000000,181.000000 
	C1537.000000,200.661026 1537.000000,220.322067 1537.000000,240.000000 
	C1072.971924,240.000000 608.943909,240.000000 144.423660,239.599304 
	C149.961685,237.278091 156.022110,235.446838 162.016708,233.420776 
	C181.945801,226.685135 198.310944,214.915009 212.097198,199.032303 
	C230.289932,178.073029 239.576157,153.722794 240.857178,126.293114 
	C241.634323,109.652893 239.262360,93.347733 233.437317,77.581390 
	C232.550659,75.181580 232.992706,71.803169 233.947205,69.308632 
	C236.184738,63.460991 239.396652,57.989109 241.686768,52.158001 
	C245.915344,41.391235 249.084137,30.354443 247.875732,18.036068 
	C239.546097,18.036068 231.294128,17.479296 223.153793,18.194101 
	C215.160629,18.895987 207.298782,21.003416 199.342026,22.257416 
	C196.423782,22.717335 192.516907,23.757263 190.563599,22.388433 
	C176.578369,12.587893 161.496796,5.705787 144.605011,2.870819 
	C143.982864,2.766404 143.531143,1.646604 143.000000,1.000000 
	C607.666687,1.000000 1072.333374,1.000000 1537.000000,1.000000 
	C1537.000000,20.761774 1537.000000,40.422932 1536.649414,60.795616 
	C1534.461426,57.451321 1533.035522,53.139648 1530.704346,49.390968 
	C1525.203491,40.545387 1517.035889,35.402863 1506.584351,34.933521 
	C1498.253784,34.559425 1489.318115,33.238422 1481.645630,35.586987 
	C1464.942505,40.699894 1456.797729,52.255592 1456.285889,69.958206 
	C1455.304688,103.892258 1455.727783,137.878403 1456.176880,171.834885 
	C1456.301636,181.268738 1459.695435,190.213943 1466.710449,197.192505 
	C1472.083984,202.538193 1478.732666,204.961639 1486.066895,206.747925 
	C1495.422363,209.026505 1504.679199,208.287827 1513.242310,205.494247 
	C1524.098755,201.952560 1532.177979,194.338058 1535.086304,182.489059 
	C1535.237549,181.873230 1536.340210,181.490982 1537.000000,181.000000 
M709.543213,47.956032 
	C707.684692,46.138405 706.032532,44.025524 703.930237,42.556797 
	C696.734253,37.529346 688.253967,36.446880 679.878662,36.125217 
	C667.404724,35.646145 654.898865,35.995388 642.406555,36.002007 
	C636.011780,36.005394 636.001892,36.015049 636.001526,42.604954 
	C635.998779,94.906021 636.000000,147.207092 636.000732,199.508163 
	C636.000732,200.507507 636.078613,201.512115 636.002014,202.505173 
	C635.802856,205.090332 636.975525,206.100937 639.527283,206.000854 
	C657.886108,205.280899 676.381104,207.849289 694.575928,203.117599 
	C709.755066,199.170151 717.203918,188.866364 718.756897,174.141129 
	C719.955688,162.774704 719.550171,151.145340 718.824341,139.698410 
	C718.207642,129.972961 712.106934,119.324333 701.739929,115.324142 
	C708.905457,111.071945 713.603271,105.056099 715.309387,97.121376 
	C716.101196,93.439148 715.847473,89.542801 716.230042,85.759949 
	C717.543091,72.776443 717.547119,60.029987 709.543213,47.956032 
M1249.094238,107.349922 
	C1250.055786,104.040314 1251.747559,100.752403 1251.846558,97.417183 
	C1252.189941,85.857887 1252.754028,74.212616 1251.723022,62.735798 
	C1250.966919,54.318226 1246.857056,46.794308 1239.074951,41.975567 
	C1231.913940,37.541454 1223.866089,36.457726 1215.839722,36.126503 
	C1204.035278,35.639381 1192.196045,35.998459 1180.371582,36.000332 
	C1173.006226,36.001495 1173.001465,36.004200 1173.000854,43.139053 
	C1172.998657,68.619904 1172.999756,94.100754 1173.000000,119.581604 
	C1173.000244,146.561325 1173.102051,173.541809 1172.900391,200.520020 
	C1172.867188,204.974930 1174.172974,206.333588 1178.545654,206.084366 
	C1184.687744,205.734283 1190.875732,205.771286 1197.022827,206.074448 
	C1201.042114,206.272659 1202.099976,204.804398 1202.069946,200.943130 
	C1201.911011,180.459763 1201.996582,159.974503 1201.997314,139.489899 
	C1201.997437,137.542908 1201.997192,135.595901 1201.997192,133.803116 
	C1203.098511,133.418121 1203.583008,133.065369 1204.004028,133.129700 
	C1208.553467,133.825058 1213.403809,133.823074 1217.559204,135.515640 
	C1223.186401,137.807556 1224.824219,143.482834 1224.916626,149.066864 
	C1225.159180,163.718521 1224.873657,178.378723 1225.095093,193.031052 
	C1225.146118,196.416473 1226.183594,199.844650 1227.182983,203.126541 
	C1227.529175,204.263367 1229.114258,205.794876 1230.167847,205.822372 
	C1238.609253,206.042557 1247.058960,205.945419 1255.616333,205.945419 
	C1255.706909,204.499374 1255.868774,203.679092 1255.791382,202.882095 
	C1254.881592,193.523148 1253.615112,184.185455 1253.096191,174.806015 
	C1252.636963,166.504333 1253.468018,158.123352 1252.870361,149.839371 
	C1252.239014,141.088715 1252.718262,131.754028 1245.467407,124.893204 
	C1243.232300,122.778252 1240.842407,120.826912 1239.158936,119.355972 
	C1242.425537,115.419128 1245.524902,111.683830 1249.094238,107.349922 
M1441.999512,165.504425 
	C1441.666626,159.235458 1441.339844,152.966187 1440.999634,146.697617 
	C1440.375366,135.195557 1438.182617,124.501961 1426.131104,118.851021 
	C1433.985718,114.513496 1439.155273,108.032387 1439.758057,99.735527 
	C1440.663330,87.271912 1440.687134,74.645485 1439.805664,62.178806 
	C1438.935913,49.878578 1430.697266,39.923950 1418.842407,38.416866 
	C1400.234985,36.051331 1381.326416,36.055035 1362.298584,35.042259 
	C1362.298584,92.871208 1362.298584,149.240143 1362.298584,205.634521 
	C1371.650269,205.634521 1380.699219,205.634521 1390.109375,205.634521 
	C1390.109375,181.338715 1390.109375,157.404785 1390.109375,132.347198 
	C1396.038940,133.418121 1401.825317,133.483154 1406.691650,135.632019 
	C1411.099365,137.578445 1412.930298,142.668716 1412.967651,147.699448 
	C1413.064331,160.694061 1412.756836,173.696411 1413.104614,186.682434 
	C1413.276489,193.097076 1414.539551,199.482483 1415.280640,205.646057 
	C1425.994507,205.646057 1435.381226,205.646057 1444.073853,205.646057 
	C1443.360962,199.064774 1442.400635,192.794556 1442.076416,186.491623 
	C1441.734497,179.844940 1441.999634,173.167023 1441.999512,165.504425 
M824.000122,110.510223 
	C823.340088,114.246147 822.608459,117.971077 822.033203,121.720001 
	C820.108093,134.265717 818.371765,146.841858 816.312561,159.365158 
	C814.038208,173.196701 811.453003,186.976929 809.105408,200.796890 
	C808.846069,202.323715 809.257141,203.964401 809.383240,205.964340 
	C817.356812,205.964340 824.833008,206.144470 832.283936,205.791153 
	C833.560303,205.730637 835.573547,203.530243 835.807068,202.085709 
	C837.122925,193.944489 838.057495,185.738846 838.993530,177.540497 
	C839.320618,174.675018 840.236145,172.910431 843.550110,172.970993 
	C850.543152,173.098801 857.551453,172.801239 864.526794,173.175735 
	C866.047485,173.257385 868.507874,175.249588 868.743408,176.660919 
	C870.127380,184.954102 870.858032,193.354507 872.122864,201.671036 
	C872.356323,203.205994 873.979309,205.709290 875.041504,205.751755 
	C883.478638,206.089096 891.935181,205.939682 901.368286,205.939682 
	C892.068298,149.001480 882.888184,92.796776 873.664612,36.325958 
	C861.103760,36.325958 848.870850,36.325958 836.380554,36.325958 
	C835.563782,40.236385 834.650879,43.910095 834.045227,47.633781 
	C832.007935,60.159348 830.112183,72.707878 828.098755,85.237411 
	C826.791077,93.375534 825.373047,101.495918 824.000122,110.510223 
M933.000061,162.433044 
	C933.000000,161.600113 932.885010,160.748230 933.018799,159.937378 
	C933.832214,155.007202 931.670044,153.545776 926.916260,153.910950 
	C921.782837,154.305298 916.587158,154.185638 911.435242,153.940430 
	C907.851807,153.769867 906.812805,155.189697 906.944946,158.584061 
	C907.158752,164.072495 906.364746,169.666580 907.134399,175.053406 
	C908.825134,186.886292 913.131958,197.492798 924.846008,203.041290 
	C935.480896,208.078644 946.384033,208.849823 958.094788,206.381760 
	C969.082153,204.066162 977.163086,198.516586 981.748474,188.846161 
	C988.966736,173.623016 988.526917,157.795685 983.008362,141.997437 
	C978.630737,129.465164 969.274536,120.765701 960.214294,111.771240 
	C953.380188,104.986740 946.078613,98.495079 940.308289,90.871559 
	C935.387146,84.369995 933.488403,76.205215 936.218262,67.858437 
	C937.561035,63.752983 939.913147,60.429237 944.765320,60.018974 
	C951.739502,59.429298 955.506104,60.791821 957.435242,66.229782 
	C959.052551,70.788803 959.539001,75.844093 959.884888,80.725090 
	C960.109924,83.901337 960.940796,85.159912 964.231323,85.050888 
	C970.221252,84.852448 976.224243,84.905823 982.218079,85.030540 
	C984.988770,85.088181 986.257507,84.078674 985.996277,81.264343 
	C985.294434,73.703690 985.112000,66.054771 983.816040,58.598614 
	C981.817078,47.098564 969.878113,35.991928 958.475769,35.105648 
	C950.455750,34.482265 942.246887,34.225010 934.301697,35.226871 
	C924.439270,36.470486 916.462280,42.249912 912.258240,51.143627 
	C901.678467,73.525322 906.035889,99.616829 924.023010,117.475029 
	C930.979126,124.381271 938.304993,130.914902 945.262939,137.819366 
	C953.854492,146.345001 958.921143,156.410675 958.010925,168.916702 
	C957.574036,174.919342 954.870300,179.951920 950.776428,180.823502 
	C942.767578,182.528549 938.999634,182.149719 935.234192,175.344543 
	C933.369629,171.974792 933.676208,167.403732 933.000061,162.433044 
M1296.838135,205.177612 
	C1296.838135,182.587753 1296.838135,159.997894 1296.838135,137.000397 
	C1298.865356,137.000397 1300.168213,137.088593 1301.455811,136.986008 
	C1309.473755,136.347336 1317.670288,136.469391 1325.438843,134.710297 
	C1330.443115,133.577118 1335.667969,130.499588 1339.296509,126.817749 
	C1346.875488,119.127838 1349.120239,109.030922 1349.015625,98.379814 
	C1348.937012,90.386002 1349.519287,82.346252 1348.838623,74.410057 
	C1348.277222,67.866035 1347.158325,61.098675 1344.738770,55.049355 
	C1341.188110,46.172447 1334.243408,39.460415 1324.603760,38.238342 
	C1311.872437,36.624302 1298.934082,36.591431 1286.078003,36.037407 
	C1280.827393,35.811138 1275.558716,36.000000 1270.365479,36.000000 
	C1270.365479,93.031288 1270.365479,149.387817 1270.365479,205.842789 
	C1279.205444,205.842789 1287.680786,205.842789 1296.838135,205.177612 
M381.001221,159.500000 
	C381.001221,174.914215 381.001221,190.328430 381.001221,205.594437 
	C406.059845,205.594437 430.430786,205.594437 454.699829,205.594437 
	C454.699829,196.594101 454.699829,188.000595 454.699829,178.876862 
	C439.364227,178.876862 424.313293,178.876862 409.370911,178.876862 
	C409.370911,162.287369 409.370911,146.239044 409.370911,129.855743 
	C421.672821,129.855743 433.606659,129.855743 445.697479,129.855743 
	C445.697479,121.128700 445.697479,112.746185 445.697479,103.843018 
	C433.354156,103.843018 421.298035,103.843018 409.381989,103.843018 
	C409.381989,89.599876 409.381989,75.883148 409.381989,61.839767 
	C424.694000,61.839767 439.626282,61.839767 454.700317,61.839767 
	C454.700317,53.117363 454.700317,44.733166 454.700317,36.329681 
	C430.029572,36.329681 405.653992,36.329681 381.001221,36.329681 
	C381.001221,77.272675 381.001221,117.886337 381.001221,159.500000 
M596.500671,179.001648 
	C590.408203,179.001648 584.315735,179.001648 578.390198,179.001648 
	C578.390198,162.254013 578.390198,146.202286 578.390198,129.818405 
	C590.381775,129.818405 601.985596,129.818405 613.687744,129.818405 
	C613.687744,121.088829 613.687744,112.702774 613.687744,103.802872 
	C601.658264,103.802872 589.931396,103.802872 578.404541,103.802872 
	C578.404541,89.562584 578.404541,75.844040 578.404541,61.796280 
	C593.408813,61.796280 608.010498,61.796280 622.678955,61.796280 
	C622.678955,53.065880 622.678955,44.679302 622.678955,36.360756 
	C598.308777,36.360756 574.261108,36.360756 550.385132,36.360756 
	C550.385132,93.091400 550.385132,149.460495 550.385132,205.748077 
	C574.700073,205.748077 598.629150,205.748077 622.698364,205.748077 
	C622.698364,196.776871 622.698364,188.058167 622.698364,179.001648 
	C614.100098,179.001648 605.800293,179.001648 596.500671,179.001648 
M1127.515747,130.000061 
	C1134.013306,129.997879 1140.513550,129.883209 1147.007080,130.042969 
	C1150.060913,130.118088 1151.120605,128.984695 1151.040405,125.972679 
	C1150.880615,119.979279 1150.874023,113.975296 1151.042114,107.982361 
	C1151.128174,104.914177 1149.957153,103.916817 1146.961426,103.958855 
	C1137.800293,104.087410 1128.633179,103.867546 1119.474365,104.064079 
	C1115.943481,104.139839 1114.885254,102.894623 1114.939575,99.455765 
	C1115.110840,88.629364 1115.166382,77.794731 1114.915649,66.971405 
	C1114.822754,62.962936 1116.174805,61.854988 1120.047974,61.924210 
	C1131.872925,62.135563 1143.705688,61.887928 1155.531860,62.064140 
	C1159.067871,62.116825 1160.194214,60.885807 1160.055786,57.448158 
	C1159.834839,51.959217 1159.760620,46.441147 1160.076660,40.961494 
	C1160.309692,36.919964 1158.786987,35.898251 1154.940063,35.926884 
	C1133.949463,36.083099 1112.956177,36.098057 1091.965942,35.916454 
	C1087.957397,35.881775 1086.898438,37.189472 1086.925903,41.050732 
	C1087.081055,62.874462 1086.999878,84.699875 1087.000000,106.524712 
	C1087.000122,138.012451 1087.014893,169.500198 1086.978027,200.987900 
	C1086.974609,203.869446 1086.917236,206.092545 1091.010498,206.063141 
	C1112.667603,205.907532 1134.326538,205.948639 1155.984375,206.037445 
	C1159.007690,206.049850 1160.119141,205.024826 1160.040405,201.989166 
	C1159.880615,195.829086 1159.832397,189.655945 1160.058716,183.499954 
	C1160.187500,179.992477 1158.936646,178.894669 1155.472900,178.942261 
	C1143.479858,179.107071 1131.481689,178.895752 1119.488770,179.066452 
	C1115.979736,179.116379 1114.884766,177.929428 1114.938843,174.472443 
	C1115.110840,163.479446 1115.000610,152.482010 1115.000122,141.486298 
	C1114.999634,130.000153 1115.000000,130.000153 1127.515747,130.000061 
M1019.993042,65.773575 
	C1019.995605,91.099480 1019.998535,116.425377 1020.000549,141.751282 
	C1020.002075,161.578812 1020.085083,181.406967 1019.929626,201.233276 
	C1019.900452,204.954010 1021.029602,206.225067 1024.765991,206.065781 
	C1030.919678,205.803467 1037.110596,205.707809 1043.251709,206.089722 
	C1047.927002,206.380447 1049.125854,204.713638 1049.092407,200.184601 
	C1048.898315,173.860413 1048.998291,147.534073 1048.998657,121.208450 
	C1048.998779,103.213722 1049.119629,85.217583 1048.909424,67.225311 
	C1048.860352,63.024998 1050.173096,61.702793 1054.295654,61.922325 
	C1060.110718,62.231983 1065.956543,61.910999 1071.785645,62.032413 
	C1074.584839,62.090714 1076.139038,61.450184 1076.043945,58.193874 
	C1075.864014,52.034279 1075.899170,45.863766 1076.030518,39.701740 
	C1076.091309,36.848740 1074.915161,35.964287 1072.181885,35.971077 
	C1047.022827,36.033600 1021.863403,36.037186 996.704285,35.969898 
	C993.859436,35.962288 992.915222,37.072411 992.969421,39.813580 
	C993.091248,45.976025 993.100891,52.144482 992.968628,58.306469 
	C992.907288,61.167461 994.095459,62.080330 996.825012,62.030674 
	C1003.154358,61.915531 1009.495300,61.832703 1015.812561,62.134399 
	C1017.238159,62.202480 1018.586243,63.893494 1019.993042,65.773575 
M363.404175,35.999973 
	C337.997803,35.999973 312.591400,35.999973 287.247986,35.999973 
	C287.247986,45.020561 287.247986,53.290199 287.247986,62.074406 
	C296.544922,62.074406 305.609680,62.074406 315.160339,62.074406 
	C315.160339,110.303635 315.160339,158.015594 315.160339,205.615356 
	C324.726349,205.615356 333.782227,205.615356 343.153290,205.615356 
	C343.153290,157.640457 343.153290,110.047691 343.153290,61.937263 
	C352.197937,61.937263 360.928772,61.937263 369.657532,61.937263 
	C369.657532,53.025650 369.657532,44.638294 369.657532,35.999981 
	C367.669983,35.999981 366.022766,35.999981 363.404175,35.999973 
M733.032227,203.166397 
	C734.251770,204.106522 735.464966,205.856522 736.691956,205.866272 
	C757.853821,206.034393 779.017639,205.939072 800.180359,206.040619 
	C803.418457,206.056152 804.088806,204.603226 804.031433,201.792328 
	C803.909119,195.795837 803.808167,189.786957 804.066528,183.799042 
	C804.225952,180.104874 803.039124,178.854202 799.268494,178.928329 
	C788.274536,179.144485 777.269653,178.833679 766.277405,179.089767 
	C762.138367,179.186203 760.876587,177.931992 760.913269,173.758453 
	C761.102478,152.263626 761.000427,130.766220 761.000000,109.269722 
	C760.999451,86.440102 760.927002,63.610023 761.070984,40.781311 
	C761.094238,37.086021 760.025818,35.748745 756.259827,35.930527 
	C750.607300,36.203362 744.904846,36.342186 739.274048,35.898731 
	C734.190918,35.498409 732.864746,37.173527 732.883057,42.251488 
	C733.075256,95.575462 733.005676,148.900375 733.032227,203.166397 
M467.999969,104.500000 
	C467.999969,138.233704 467.999969,171.967392 467.999969,205.644974 
	C492.019287,205.644974 515.393921,205.644974 538.599365,205.644974 
	C538.599365,196.566650 538.599365,187.846100 538.599365,178.808197 
	C524.268677,178.808197 510.336395,178.808197 495.933472,178.808197 
	C495.933472,131.114471 495.933472,83.752319 495.933472,36.317108 
	C486.400879,36.317108 477.350159,36.317108 467.999969,36.317108 
	C467.999969,58.922073 467.999969,81.211037 467.999969,104.500000 
z"/>
<path fill="#ED3237" opacity="1.000000" stroke="none" 
	d="
M1537.000000,180.531342 
	C1536.340210,181.490982 1535.237549,181.873230 1535.086304,182.489059 
	C1532.177979,194.338058 1524.098755,201.952560 1513.242310,205.494247 
	C1504.679199,208.287827 1495.422363,209.026505 1486.066895,206.747925 
	C1478.732666,204.961639 1472.083984,202.538193 1466.710449,197.192505 
	C1459.695435,190.213943 1456.301636,181.268738 1456.176880,171.834885 
	C1455.727783,137.878403 1455.304688,103.892258 1456.285889,69.958206 
	C1456.797729,52.255592 1464.942505,40.699894 1481.645630,35.586987 
	C1489.318115,33.238422 1498.253784,34.559425 1506.584351,34.933521 
	C1517.035889,35.402863 1525.203491,40.545387 1530.704346,49.390968 
	C1533.035522,53.139648 1534.461426,57.451321 1536.649414,61.253571 
	C1537.000000,100.687561 1537.000000,140.375122 1537.000000,180.531342 
M1509.000488,140.500000 
	C1509.000488,118.868881 1509.036987,97.237617 1508.954834,75.606812 
	C1508.944336,72.855354 1509.107178,69.611519 1507.776611,67.476387 
	C1505.951904,64.548195 1503.122925,61.130470 1500.094238,60.341763 
	C1496.036499,59.285080 1490.377808,58.358143 1487.903809,63.635616 
	C1485.962402,67.776985 1484.226929,72.483521 1484.168823,76.961960 
	C1483.825684,103.414001 1483.949951,129.872940 1484.044189,156.329102 
	C1484.061768,161.253677 1484.954346,166.179352 1484.902344,171.098816 
	C1484.851562,175.899857 1487.882202,179.187286 1491.181274,180.647171 
	C1495.494263,182.555756 1500.733643,182.448685 1504.921875,178.980881 
	C1508.713745,175.841354 1508.820801,171.271103 1508.934570,166.956406 
	C1509.158447,158.476257 1509.000488,149.986053 1509.000488,140.500000 
z"/>
<path fill="#3A5367" opacity="1.000000" stroke="none" 
	d="
M142.531342,1.000000 
	C143.531143,1.646604 143.982864,2.766404 144.605011,2.870819 
	C161.496796,5.705787 176.578369,12.587893 190.563599,22.388433 
	C192.516907,23.757263 196.423782,22.717335 199.342026,22.257416 
	C207.298782,21.003416 215.160629,18.895987 223.153793,18.194101 
	C231.294128,17.479296 239.546097,18.036068 247.875732,18.036068 
	C249.084137,30.354443 245.915344,41.391235 241.686768,52.158001 
	C239.396652,57.989109 236.184738,63.460991 233.947205,69.308632 
	C232.992706,71.803169 232.550659,75.181580 233.437317,77.581390 
	C239.262360,93.347733 241.634323,109.652893 240.857178,126.293114 
	C239.576157,153.722794 230.289932,178.073029 212.097198,199.032303 
	C198.310944,214.915009 181.945801,226.685135 162.016708,233.420776 
	C156.022110,235.446838 149.961685,237.278091 143.965714,239.599304 
	C128.979111,240.000000 113.958214,240.000000 98.489487,239.593918 
	C97.537666,238.820541 97.066315,238.192261 96.524872,238.124557 
	C86.133148,236.825241 76.770607,232.794174 67.337502,228.374054 
	C50.473618,220.472061 36.678265,208.894943 25.470121,194.440338 
	C13.562265,179.083359 5.462496,161.748276 2.919486,142.166458 
	C2.816648,141.374573 1.663692,140.719055 1.000001,140.000000 
	C1.000000,127.312439 1.000000,114.624878 1.410009,101.484802 
	C3.874613,93.855743 5.286451,86.411140 8.140429,79.567993 
	C12.034707,70.230453 16.544142,61.066292 21.677979,52.350960 
	C27.467728,42.522133 35.957474,34.907116 44.594330,27.501379 
	C59.273861,14.914310 76.259888,7.258844 94.953789,2.983855 
	C96.062439,2.730325 96.988808,1.679704 98.000000,1.000000 
	C112.687561,1.000000 127.375122,1.000000 142.531342,1.000000 
M18.203016,62.754150 
	C-24.350098,141.132385 27.972813,235.085754 116.642456,238.090485 
	C164.731842,239.720062 201.984116,218.344696 224.301498,175.910767 
	C246.042130,134.573471 245.269287,92.779419 215.850861,54.314640 
	C207.419525,43.290634 198.480972,31.712299 187.326263,23.872009 
	C130.651993,-15.962558 54.214287,1.826367 18.203016,62.754150 
z"/>
<path fill="#000000" opacity="1.000000" stroke="none" 
	d="
M97.531342,1.000000 
	C96.988808,1.679704 96.062439,2.730325 94.953789,2.983855 
	C76.259888,7.258844 59.273861,14.914310 44.594330,27.501379 
	C35.957474,34.907116 27.467728,42.522133 21.677979,52.350960 
	C16.544142,61.066292 12.034707,70.230453 8.140429,79.567993 
	C5.286451,86.411140 3.874613,93.855743 1.410009,101.016144 
	C1.000000,67.740845 1.000000,34.481693 1.000000,1.000000 
	C33.020550,1.000000 65.041618,1.000000 97.531342,1.000000 
z"/>
<path fill="#000000" opacity="1.000000" stroke="none" 
	d="
M1.000001,140.468658 
	C1.663692,140.719055 2.816648,141.374573 2.919486,142.166458 
	C5.462496,161.748276 13.562265,179.083359 25.470121,194.440338 
	C36.678265,208.894943 50.473618,220.472061 67.337502,228.374054 
	C76.770607,232.794174 86.133148,236.825241 96.524872,238.124557 
	C97.066315,238.192261 97.537666,238.820541 98.020828,239.593918 
	C65.738625,240.000000 33.477245,240.000000 1.000000,240.000000 
	C1.000000,206.979416 1.000000,173.958374 1.000001,140.468658 
z"/>
<path fill="#334C61" opacity="1.000000" stroke="none" 
	d="
M709.780762,48.242828 
	C717.547119,60.029987 717.543091,72.776443 716.230042,85.759949 
	C715.847473,89.542801 716.101196,93.439148 715.309387,97.121376 
	C713.603271,105.056099 708.905457,111.071945 701.739929,115.324142 
	C712.106934,119.324333 718.207642,129.972961 718.824341,139.698410 
	C719.550171,151.145340 719.955688,162.774704 718.756897,174.141129 
	C717.203918,188.866364 709.755066,199.170151 694.575928,203.117599 
	C676.381104,207.849289 657.886108,205.280899 639.527283,206.000854 
	C636.975525,206.100937 635.802856,205.090332 636.002014,202.505173 
	C636.078613,201.512115 636.000732,200.507507 636.000732,199.508163 
	C636.000000,147.207092 635.998779,94.906021 636.001526,42.604954 
	C636.001892,36.015049 636.011780,36.005394 642.406555,36.002007 
	C654.898865,35.995388 667.404724,35.646145 679.878662,36.125217 
	C688.253967,36.446880 696.734253,37.529346 703.930237,42.556797 
	C706.032532,44.025524 707.684692,46.138405 709.780762,48.242828 
M686.388245,177.085922 
	C687.370850,175.840103 688.723022,174.739227 689.277527,173.325516 
	C693.626953,162.235413 692.831970,150.947693 689.776123,139.782639 
	C689.082703,137.248795 687.023132,134.794693 684.989868,132.978470 
	C679.515564,128.088562 672.670166,130.380630 666.349060,130.213974 
	C665.600281,130.194244 664.134399,132.124374 664.123718,133.162155 
	C663.977234,147.470459 663.988281,161.781113 664.118713,176.089752 
	C664.127319,177.035828 665.441956,178.803833 666.100525,178.781128 
	C672.664917,178.554855 679.219055,178.032288 686.388245,177.085922 
M686.070740,98.359131 
	C690.268555,90.608437 689.301025,82.300575 688.486755,74.081886 
	C687.994385,69.111717 686.085327,64.121246 680.942871,62.868500 
	C676.086609,61.685448 670.783447,62.229023 665.681641,62.312962 
	C665.110901,62.322353 664.101196,64.281288 664.090942,65.343811 
	C663.977173,77.150139 663.976624,88.958427 664.097778,100.764641 
	C664.108459,101.802208 665.176270,103.712692 665.783997,103.725273 
	C672.767212,103.869804 680.188354,105.458725 686.070740,98.359131 
z"/>
<path fill="#334C61" opacity="1.000000" stroke="none" 
	d="
M1248.859253,107.649231 
	C1245.524902,111.683830 1242.425537,115.419128 1239.158936,119.355972 
	C1240.842407,120.826912 1243.232300,122.778252 1245.467407,124.893204 
	C1252.718262,131.754028 1252.239014,141.088715 1252.870361,149.839371 
	C1253.468018,158.123352 1252.636963,166.504333 1253.096191,174.806015 
	C1253.615112,184.185455 1254.881592,193.523148 1255.791382,202.882095 
	C1255.868774,203.679092 1255.706909,204.499374 1255.616333,205.945419 
	C1247.058960,205.945419 1238.609253,206.042557 1230.167847,205.822372 
	C1229.114258,205.794876 1227.529175,204.263367 1227.182983,203.126541 
	C1226.183594,199.844650 1225.146118,196.416473 1225.095093,193.031052 
	C1224.873657,178.378723 1225.159180,163.718521 1224.916626,149.066864 
	C1224.824219,143.482834 1223.186401,137.807556 1217.559204,135.515640 
	C1213.403809,133.823074 1208.553467,133.825058 1204.004028,133.129700 
	C1203.583008,133.065369 1203.098511,133.418121 1201.997192,133.803116 
	C1201.997192,135.595901 1201.997437,137.542908 1201.997314,139.489899 
	C1201.996582,159.974503 1201.911011,180.459763 1202.069946,200.943130 
	C1202.099976,204.804398 1201.042114,206.272659 1197.022827,206.074448 
	C1190.875732,205.771286 1184.687744,205.734283 1178.545654,206.084366 
	C1174.172974,206.333588 1172.867188,204.974930 1172.900391,200.520020 
	C1173.102051,173.541809 1173.000244,146.561325 1173.000000,119.581604 
	C1172.999756,94.100754 1172.998657,68.619904 1173.000854,43.139053 
	C1173.001465,36.004200 1173.006226,36.001495 1180.371582,36.000332 
	C1192.196045,35.998459 1204.035278,35.639381 1215.839722,36.126503 
	C1223.866089,36.457726 1231.913940,37.541454 1239.074951,41.975567 
	C1246.857056,46.794308 1250.966919,54.318226 1251.723022,62.735798 
	C1252.754028,74.212616 1252.189941,85.857887 1251.846558,97.417183 
	C1251.747559,100.752403 1250.055786,104.040314 1248.859253,107.649231 
M1225.000000,82.547424 
	C1224.996460,80.382019 1225.179443,78.196877 1224.953003,76.055046 
	C1224.357178,70.420654 1222.825195,64.877037 1216.975342,62.828018 
	C1213.536377,61.623478 1209.461670,62.275620 1205.680542,61.992596 
	C1202.807861,61.777576 1201.949585,63.118649 1201.967407,65.834091 
	C1202.051392,78.659523 1201.972168,91.486046 1202.065063,104.311394 
	C1202.073242,105.456810 1202.572754,107.177742 1203.400513,107.644272 
	C1208.822754,110.700470 1221.319214,106.172340 1222.902466,100.125999 
	C1224.303589,94.775589 1224.353516,89.071373 1225.000000,82.547424 
z"/>
<path fill="#ED3237" opacity="1.000000" stroke="none" 
	d="
M1441.999512,166.003586 
	C1441.999634,173.167023 1441.734497,179.844940 1442.076416,186.491623 
	C1442.400635,192.794556 1443.360962,199.064774 1444.073853,205.646057 
	C1435.381226,205.646057 1425.994507,205.646057 1415.280640,205.646057 
	C1414.539551,199.482483 1413.276489,193.097076 1413.104614,186.682434 
	C1412.756836,173.696411 1413.064331,160.694061 1412.967651,147.699448 
	C1412.930298,142.668716 1411.099365,137.578445 1406.691650,135.632019 
	C1401.825317,133.483154 1396.038940,133.418121 1390.109375,132.347198 
	C1390.109375,157.404785 1390.109375,181.338715 1390.109375,205.634521 
	C1380.699219,205.634521 1371.650269,205.634521 1362.298584,205.634521 
	C1362.298584,149.240143 1362.298584,92.871208 1362.298584,35.042259 
	C1381.326416,36.055035 1400.234985,36.051331 1418.842407,38.416866 
	C1430.697266,39.923950 1438.935913,49.878578 1439.805664,62.178806 
	C1440.687134,74.645485 1440.663330,87.271912 1439.758057,99.735527 
	C1439.155273,108.032387 1433.985718,114.513496 1426.131104,118.851021 
	C1438.182617,124.501961 1440.375366,135.195557 1440.999634,146.697617 
	C1441.339844,152.966187 1441.666626,159.235458 1441.999512,166.003586 
M1394.623047,62.000042 
	C1393.188232,62.094845 1391.753540,62.189644 1390.331421,62.283604 
	C1390.331421,77.660789 1390.331421,92.679192 1390.331421,107.995102 
	C1393.627930,107.995102 1396.627563,108.275131 1399.557373,107.941383 
	C1407.620117,107.022911 1412.976196,102.452614 1412.997437,93.406807 
	C1413.012207,87.094215 1413.237427,80.769363 1412.913940,74.473343 
	C1412.708008,70.463982 1411.373779,66.994225 1407.852661,64.042503 
	C1403.831543,60.671547 1399.628052,62.722038 1394.623047,62.000042 
z"/>
<path fill="#334C61" opacity="1.000000" stroke="none" 
	d="
M824.002258,110.067230 
	C825.373047,101.495918 826.791077,93.375534 828.098755,85.237411 
	C830.112183,72.707878 832.007935,60.159348 834.045227,47.633781 
	C834.650879,43.910095 835.563782,40.236385 836.380554,36.325958 
	C848.870850,36.325958 861.103760,36.325958 873.664612,36.325958 
	C882.888184,92.796776 892.068298,149.001480 901.368286,205.939682 
	C891.935181,205.939682 883.478638,206.089096 875.041504,205.751755 
	C873.979309,205.709290 872.356323,203.205994 872.122864,201.671036 
	C870.858032,193.354507 870.127380,184.954102 868.743408,176.660919 
	C868.507874,175.249588 866.047485,173.257385 864.526794,173.175735 
	C857.551453,172.801239 850.543152,173.098801 843.550110,172.970993 
	C840.236145,172.910431 839.320618,174.675018 838.993530,177.540497 
	C838.057495,185.738846 837.122925,193.944489 835.807068,202.085709 
	C835.573547,203.530243 833.560303,205.730637 832.283936,205.791153 
	C824.833008,206.144470 817.356812,205.964340 809.383240,205.964340 
	C809.257141,203.964401 808.846069,202.323715 809.105408,200.796890 
	C811.453003,186.976929 814.038208,173.196701 816.312561,159.365158 
	C818.371765,146.841858 820.108093,134.265717 822.033203,121.720001 
	C822.608459,117.971077 823.340088,114.246147 824.002258,110.067230 
M844.999634,135.503204 
	C844.610596,139.499619 844.221619,143.496033 843.827698,147.542664 
	C851.174622,147.542664 857.402161,147.542664 864.421814,147.542664 
	C861.099976,124.027771 857.858459,101.081360 854.616882,78.134956 
	C854.063477,78.179901 853.510010,78.224846 852.956543,78.269798 
	C851.638428,87.903404 850.343872,97.540314 848.995422,107.169670 
	C847.713745,116.321625 846.375488,125.465668 844.999634,135.503204 
z"/>
<path fill="#334C61" opacity="1.000000" stroke="none" 
	d="
M933.000244,162.904617 
	C933.676208,167.403732 933.369629,171.974792 935.234192,175.344543 
	C938.999634,182.149719 942.767578,182.528549 950.776428,180.823502 
	C954.870300,179.951920 957.574036,174.919342 958.010925,168.916702 
	C958.921143,156.410675 953.854492,146.345001 945.262939,137.819366 
	C938.304993,130.914902 930.979126,124.381271 924.023010,117.475029 
	C906.035889,99.616829 901.678467,73.525322 912.258240,51.143627 
	C916.462280,42.249912 924.439270,36.470486 934.301697,35.226871 
	C942.246887,34.225010 950.455750,34.482265 958.475769,35.105648 
	C969.878113,35.991928 981.817078,47.098564 983.816040,58.598614 
	C985.112000,66.054771 985.294434,73.703690 985.996277,81.264343 
	C986.257507,84.078674 984.988770,85.088181 982.218079,85.030540 
	C976.224243,84.905823 970.221252,84.852448 964.231323,85.050888 
	C960.940796,85.159912 960.109924,83.901337 959.884888,80.725090 
	C959.539001,75.844093 959.052551,70.788803 957.435242,66.229782 
	C955.506104,60.791821 951.739502,59.429298 944.765320,60.018974 
	C939.913147,60.429237 937.561035,63.752983 936.218262,67.858437 
	C933.488403,76.205215 935.387146,84.369995 940.308289,90.871559 
	C946.078613,98.495079 953.380188,104.986740 960.214294,111.771240 
	C969.274536,120.765701 978.630737,129.465164 983.008362,141.997437 
	C988.526917,157.795685 988.966736,173.623016 981.748474,188.846161 
	C977.163086,198.516586 969.082153,204.066162 958.094788,206.381760 
	C946.384033,208.849823 935.480896,208.078644 924.846008,203.041290 
	C913.131958,197.492798 908.825134,186.886292 907.134399,175.053406 
	C906.364746,169.666580 907.158752,164.072495 906.944946,158.584061 
	C906.812805,155.189697 907.851807,153.769867 911.435242,153.940430 
	C916.587158,154.185638 921.782837,154.305298 926.916260,153.910950 
	C931.670044,153.545776 933.832214,155.007202 933.018799,159.937378 
	C932.885010,160.748230 933.000000,161.600113 933.000244,162.904617 
z"/>
<path fill="#ED3237" opacity="1.000000" stroke="none" 
	d="
M1296.497070,205.510193 
	C1287.680786,205.842789 1279.205444,205.842789 1270.365479,205.842789 
	C1270.365479,149.387817 1270.365479,93.031288 1270.365479,36.000000 
	C1275.558716,36.000000 1280.827393,35.811138 1286.078003,36.037407 
	C1298.934082,36.591431 1311.872437,36.624302 1324.603760,38.238342 
	C1334.243408,39.460415 1341.188110,46.172447 1344.738770,55.049355 
	C1347.158325,61.098675 1348.277222,67.866035 1348.838623,74.410057 
	C1349.519287,82.346252 1348.937012,90.386002 1349.015625,98.379814 
	C1349.120239,109.030922 1346.875488,119.127838 1339.296509,126.817749 
	C1335.667969,130.499588 1330.443115,133.577118 1325.438843,134.710297 
	C1317.670288,136.469391 1309.473755,136.347336 1301.455811,136.986008 
	C1300.168213,137.088593 1298.865356,137.000397 1296.838135,137.000397 
	C1296.838135,159.997894 1296.838135,182.587753 1296.497070,205.510193 
M1315.467651,109.176735 
	C1319.336914,106.994812 1321.037109,103.639984 1321.013306,99.246254 
	C1320.967163,90.769966 1321.133179,82.289680 1320.906860,73.819199 
	C1320.849731,71.677551 1320.068481,69.288025 1318.888916,67.492737 
	C1315.047974,61.646492 1307.059692,60.056923 1297.243408,62.783554 
	C1297.243408,78.701492 1297.243408,94.602936 1297.243408,111.561821 
	C1303.354004,110.927284 1309.114868,110.329079 1315.467651,109.176735 
z"/>
<path fill="#00ADD6" opacity="1.000000" stroke="none" 
	d="
M381.001221,159.000000 
	C381.001221,117.886337 381.001221,77.272675 381.001221,36.329681 
	C405.653992,36.329681 430.029572,36.329681 454.700317,36.329681 
	C454.700317,44.733166 454.700317,53.117363 454.700317,61.839767 
	C439.626282,61.839767 424.694000,61.839767 409.381989,61.839767 
	C409.381989,75.883148 409.381989,89.599876 409.381989,103.843018 
	C421.298035,103.843018 433.354156,103.843018 445.697479,103.843018 
	C445.697479,112.746185 445.697479,121.128700 445.697479,129.855743 
	C433.606659,129.855743 421.672821,129.855743 409.370911,129.855743 
	C409.370911,146.239044 409.370911,162.287369 409.370911,178.876862 
	C424.313293,178.876862 439.364227,178.876862 454.699829,178.876862 
	C454.699829,188.000595 454.699829,196.594101 454.699829,205.594437 
	C430.430786,205.594437 406.059845,205.594437 381.001221,205.594437 
	C381.001221,190.328430 381.001221,174.914215 381.001221,159.000000 
z"/>
<path fill="#00ADD6" opacity="1.000000" stroke="none" 
	d="
M597.000610,179.001648 
	C605.800293,179.001648 614.100098,179.001648 622.698364,179.001648 
	C622.698364,188.058167 622.698364,196.776871 622.698364,205.748077 
	C598.629150,205.748077 574.700073,205.748077 550.385132,205.748077 
	C550.385132,149.460495 550.385132,93.091400 550.385132,36.360756 
	C574.261108,36.360756 598.308777,36.360756 622.678955,36.360756 
	C622.678955,44.679302 622.678955,53.065880 622.678955,61.796280 
	C608.010498,61.796280 593.408813,61.796280 578.404541,61.796280 
	C578.404541,75.844040 578.404541,89.562584 578.404541,103.802872 
	C589.931396,103.802872 601.658264,103.802872 613.687744,103.802872 
	C613.687744,112.702774 613.687744,121.088829 613.687744,129.818405 
	C601.985596,129.818405 590.381775,129.818405 578.390198,129.818405 
	C578.390198,146.202286 578.390198,162.254013 578.390198,179.001648 
	C584.315735,179.001648 590.408203,179.001648 597.000610,179.001648 
z"/>
<path fill="#334C61" opacity="1.000000" stroke="none" 
	d="
M1127.020264,130.000061 
	C1115.000000,130.000153 1114.999634,130.000153 1115.000122,141.486298 
	C1115.000610,152.482010 1115.110840,163.479446 1114.938843,174.472443 
	C1114.884766,177.929428 1115.979736,179.116379 1119.488770,179.066452 
	C1131.481689,178.895752 1143.479858,179.107071 1155.472900,178.942261 
	C1158.936646,178.894669 1160.187500,179.992477 1160.058716,183.499954 
	C1159.832397,189.655945 1159.880615,195.829086 1160.040405,201.989166 
	C1160.119141,205.024826 1159.007690,206.049850 1155.984375,206.037445 
	C1134.326538,205.948639 1112.667603,205.907532 1091.010498,206.063141 
	C1086.917236,206.092545 1086.974609,203.869446 1086.978027,200.987900 
	C1087.014893,169.500198 1087.000122,138.012451 1087.000000,106.524712 
	C1086.999878,84.699875 1087.081055,62.874462 1086.925903,41.050732 
	C1086.898438,37.189472 1087.957397,35.881775 1091.965942,35.916454 
	C1112.956177,36.098057 1133.949463,36.083099 1154.940063,35.926884 
	C1158.786987,35.898251 1160.309692,36.919964 1160.076660,40.961494 
	C1159.760620,46.441147 1159.834839,51.959217 1160.055786,57.448158 
	C1160.194214,60.885807 1159.067871,62.116825 1155.531860,62.064140 
	C1143.705688,61.887928 1131.872925,62.135563 1120.047974,61.924210 
	C1116.174805,61.854988 1114.822754,62.962936 1114.915649,66.971405 
	C1115.166382,77.794731 1115.110840,88.629364 1114.939575,99.455765 
	C1114.885254,102.894623 1115.943481,104.139839 1119.474365,104.064079 
	C1128.633179,103.867546 1137.800293,104.087410 1146.961426,103.958855 
	C1149.957153,103.916817 1151.128174,104.914177 1151.042114,107.982361 
	C1150.874023,113.975296 1150.880615,119.979279 1151.040405,125.972679 
	C1151.120605,128.984695 1150.060913,130.118088 1147.007080,130.042969 
	C1140.513550,129.883209 1134.013306,129.997879 1127.020264,130.000061 
z"/>
<path fill="#334C61" opacity="1.000000" stroke="none" 
	d="
M1019.981567,65.305496 
	C1018.586243,63.893494 1017.238159,62.202480 1015.812561,62.134399 
	C1009.495300,61.832703 1003.154358,61.915531 996.825012,62.030674 
	C994.095459,62.080330 992.907288,61.167461 992.968628,58.306469 
	C993.100891,52.144482 993.091248,45.976025 992.969421,39.813580 
	C992.915222,37.072411 993.859436,35.962288 996.704285,35.969898 
	C1021.863403,36.037186 1047.022827,36.033600 1072.181885,35.971077 
	C1074.915161,35.964287 1076.091309,36.848740 1076.030518,39.701740 
	C1075.899170,45.863766 1075.864014,52.034279 1076.043945,58.193874 
	C1076.139038,61.450184 1074.584839,62.090714 1071.785645,62.032413 
	C1065.956543,61.910999 1060.110718,62.231983 1054.295654,61.922325 
	C1050.173096,61.702793 1048.860352,63.024998 1048.909424,67.225311 
	C1049.119629,85.217583 1048.998779,103.213722 1048.998657,121.208450 
	C1048.998291,147.534073 1048.898315,173.860413 1049.092407,200.184601 
	C1049.125854,204.713638 1047.927002,206.380447 1043.251709,206.089722 
	C1037.110596,205.707809 1030.919678,205.803467 1024.765991,206.065781 
	C1021.029602,206.225067 1019.900452,204.954010 1019.929626,201.233276 
	C1020.085083,181.406967 1020.002075,161.578812 1020.000549,141.751282 
	C1019.998535,116.425377 1019.995605,91.099480 1019.981567,65.305496 
z"/>
<path fill="#00ADD6" opacity="1.000000" stroke="none" 
	d="
M363.889862,35.999977 
	C366.022766,35.999981 367.669983,35.999981 369.657532,35.999981 
	C369.657532,44.638294 369.657532,53.025650 369.657532,61.937263 
	C360.928772,61.937263 352.197937,61.937263 343.153290,61.937263 
	C343.153290,110.047691 343.153290,157.640457 343.153290,205.615356 
	C333.782227,205.615356 324.726349,205.615356 315.160339,205.615356 
	C315.160339,158.015594 315.160339,110.303635 315.160339,62.074406 
	C305.609680,62.074406 296.544922,62.074406 287.247986,62.074406 
	C287.247986,53.290199 287.247986,45.020561 287.247986,35.999973 
	C312.591400,35.999973 337.997803,35.999973 363.889862,35.999977 
z"/>
<path fill="#334C61" opacity="1.000000" stroke="none" 
	d="
M733.020325,202.695709 
	C733.005676,148.900375 733.075256,95.575462 732.883057,42.251488 
	C732.864746,37.173527 734.190918,35.498409 739.274048,35.898731 
	C744.904846,36.342186 750.607300,36.203362 756.259827,35.930527 
	C760.025818,35.748745 761.094238,37.086021 761.070984,40.781311 
	C760.927002,63.610023 760.999451,86.440102 761.000000,109.269722 
	C761.000427,130.766220 761.102478,152.263626 760.913269,173.758453 
	C760.876587,177.931992 762.138367,179.186203 766.277405,179.089767 
	C777.269653,178.833679 788.274536,179.144485 799.268494,178.928329 
	C803.039124,178.854202 804.225952,180.104874 804.066528,183.799042 
	C803.808167,189.786957 803.909119,195.795837 804.031433,201.792328 
	C804.088806,204.603226 803.418457,206.056152 800.180359,206.040619 
	C779.017639,205.939072 757.853821,206.034393 736.691956,205.866272 
	C735.464966,205.856522 734.251770,204.106522 733.020325,202.695709 
z"/>
<path fill="#00ADD6" opacity="1.000000" stroke="none" 
	d="
M467.999969,104.000000 
	C467.999969,81.211037 467.999969,58.922073 467.999969,36.317108 
	C477.350159,36.317108 486.400879,36.317108 495.933472,36.317108 
	C495.933472,83.752319 495.933472,131.114471 495.933472,178.808197 
	C510.336395,178.808197 524.268677,178.808197 538.599365,178.808197 
	C538.599365,187.846100 538.599365,196.566650 538.599365,205.644974 
	C515.393921,205.644974 492.019287,205.644974 467.999969,205.644974 
	C467.999969,171.967392 467.999969,138.233704 467.999969,104.000000 
z"/>
<path fill="#000000" opacity="1.000000" stroke="none" 
	d="
M1509.000488,141.000000 
	C1509.000488,149.986053 1509.158447,158.476257 1508.934570,166.956406 
	C1508.820801,171.271103 1508.713745,175.841354 1504.921875,178.980881 
	C1500.733643,182.448685 1495.494263,182.555756 1491.181274,180.647171 
	C1487.882202,179.187286 1484.851562,175.899857 1484.902344,171.098816 
	C1484.954346,166.179352 1484.061768,161.253677 1484.044189,156.329102 
	C1483.949951,129.872940 1483.825684,103.414001 1484.168823,76.961960 
	C1484.226929,72.483521 1485.962402,67.776985 1487.903809,63.635616 
	C1490.377808,58.358143 1496.036499,59.285080 1500.094238,60.341763 
	C1503.122925,61.130470 1505.951904,64.548195 1507.776611,67.476387 
	C1509.107178,69.611519 1508.944336,72.855354 1508.954834,75.606812 
	C1509.036987,97.237617 1509.000488,118.868881 1509.000488,141.000000 
z"/>
<path fill="#F9FBFC" opacity="1.000000" stroke="none" 
	d="
M18.384487,62.434784 
	C54.214287,1.826367 130.651993,-15.962558 187.326263,23.872009 
	C198.480972,31.712299 207.419525,43.290634 215.850861,54.314640 
	C245.269287,92.779419 246.042130,134.573471 224.301498,175.910767 
	C201.984116,218.344696 164.731842,239.720062 116.642456,238.090485 
	C27.972813,235.085754 -24.350098,141.132385 18.384487,62.434784 
M84.490318,126.497978 
	C79.900520,123.513817 84.852661,120.846245 85.018417,117.506973 
	C93.069031,106.025726 101.119652,94.544479 109.748672,82.751205 
	C129.633408,60.724705 152.970047,43.339287 180.194290,30.967321 
	C160.238388,14.923384 120.901321,5.230021 85.658203,18.279682 
	C44.005150,33.702789 19.464638,63.890270 13.550820,107.889214 
	C9.522560,137.859558 17.824043,164.978714 37.187107,189.209366 
	C38.570339,187.617188 39.312416,186.723007 40.096306,185.867126 
	C46.170929,179.234467 52.154785,172.514481 58.376522,166.022583 
	C61.376476,162.892365 65.679085,163.099594 68.009789,166.007156 
	C70.396187,168.984192 69.660568,172.917969 66.024544,175.448700 
	C63.294628,177.348770 60.398983,179.015350 57.542149,180.727524 
	C51.608170,184.283905 45.650951,187.801498 39.642548,191.371140 
	C67.721565,226.584610 128.209274,244.387268 179.010223,211.804825 
	C231.417221,178.192307 236.476593,116.867607 221.937973,84.370308 
	C218.997971,88.006027 216.249863,91.480713 213.421814,94.889069 
	C197.617157,113.936897 178.606232,129.199692 156.972153,142.204269 
	C144.145172,147.789291 131.318207,153.374313 117.743637,158.980835 
	C114.636414,159.515778 110.963982,162.098801 109.910095,156.169098 
	C111.247650,154.947433 112.585213,153.725769 114.123230,152.321030 
	C112.106995,149.617188 110.177696,147.029938 108.168739,144.335861 
	C122.870308,132.408966 137.167389,120.627274 145.051117,103.024216 
	C126.235329,107.255241 111.809616,118.880882 97.268440,130.816956 
	C95.007988,128.239243 92.858818,125.788445 90.729378,123.360138 
	C88.598106,124.731705 86.799110,125.889435 84.490318,126.497978 
M179.144257,99.572388 
	C180.290588,99.374336 181.452438,99.240578 182.580902,98.968407 
	C195.387344,95.879463 202.926529,82.511192 198.969467,69.940361 
	C195.001297,57.334206 181.229919,50.722012 168.921692,55.513191 
	C158.768372,59.465538 152.955780,69.877029 154.799316,80.809189 
	C156.682510,91.976616 165.694168,99.196854 179.144257,99.572388 
z"/>
<path fill="#000000" opacity="1.000000" stroke="none" 
	d="
M686.082153,177.339645 
	C679.219055,178.032288 672.664917,178.554855 666.100525,178.781128 
	C665.441956,178.803833 664.127319,177.035828 664.118713,176.089752 
	C663.988281,161.781113 663.977234,147.470459 664.123718,133.162155 
	C664.134399,132.124374 665.600281,130.194244 666.349060,130.213974 
	C672.670166,130.380630 679.515564,128.088562 684.989868,132.978470 
	C687.023132,134.794693 689.082703,137.248795 689.776123,139.782639 
	C692.831970,150.947693 693.626953,162.235413 689.277527,173.325516 
	C688.723022,174.739227 687.370850,175.840103 686.082153,177.339645 
z"/>
<path fill="#000000" opacity="1.000000" stroke="none" 
	d="
M685.818298,98.644615 
	C680.188354,105.458725 672.767212,103.869804 665.783997,103.725273 
	C665.176270,103.712692 664.108459,101.802208 664.097778,100.764641 
	C663.976624,88.958427 663.977173,77.150139 664.090942,65.343811 
	C664.101196,64.281288 665.110901,62.322353 665.681641,62.312962 
	C670.783447,62.229023 676.086609,61.685448 680.942871,62.868500 
	C686.085327,64.121246 687.994385,69.111717 688.486755,74.081886 
	C689.301025,82.300575 690.268555,90.608437 685.818298,98.644615 
z"/>
<path fill="#000000" opacity="1.000000" stroke="none" 
	d="
M1225.000000,83.035393 
	C1224.353516,89.071373 1224.303589,94.775589 1222.902466,100.125999 
	C1221.319214,106.172340 1208.822754,110.700470 1203.400513,107.644272 
	C1202.572754,107.177742 1202.073242,105.456810 1202.065063,104.311394 
	C1201.972168,91.486046 1202.051392,78.659523 1201.967407,65.834091 
	C1201.949585,63.118649 1202.807861,61.777576 1205.680542,61.992596 
	C1209.461670,62.275620 1213.536377,61.623478 1216.975342,62.828018 
	C1222.825195,64.877037 1224.357178,70.420654 1224.953003,76.055046 
	C1225.179443,78.196877 1224.996460,80.382019 1225.000000,83.035393 
z"/>
<path fill="#000000" opacity="1.000000" stroke="none" 
	d="
M1395.101196,61.999977 
	C1399.628052,62.722038 1403.831543,60.671547 1407.852661,64.042503 
	C1411.373779,66.994225 1412.708008,70.463982 1412.913940,74.473343 
	C1413.237427,80.769363 1413.012207,87.094215 1412.997437,93.406807 
	C1412.976196,102.452614 1407.620117,107.022911 1399.557373,107.941383 
	C1396.627563,108.275131 1393.627930,107.995102 1390.331421,107.995102 
	C1390.331421,92.679192 1390.331421,77.660789 1390.331421,62.283604 
	C1391.753540,62.189644 1393.188232,62.094845 1395.101196,61.999977 
z"/>
<path fill="#000000" opacity="1.000000" stroke="none" 
	d="
M845.030884,135.058197 
	C846.375488,125.465668 847.713745,116.321625 848.995422,107.169670 
	C850.343872,97.540314 851.638428,87.903404 852.956543,78.269798 
	C853.510010,78.224846 854.063477,78.179901 854.616882,78.134956 
	C857.858459,101.081360 861.099976,124.027771 864.421814,147.542664 
	C857.402161,147.542664 851.174622,147.542664 843.827698,147.542664 
	C844.221619,143.496033 844.610596,139.499619 845.030884,135.058197 
z"/>
<path fill="#000000" opacity="1.000000" stroke="none" 
	d="
M1315.171631,109.453804 
	C1309.114868,110.329079 1303.354004,110.927284 1297.243408,111.561821 
	C1297.243408,94.602936 1297.243408,78.701492 1297.243408,62.783554 
	C1307.059692,60.056923 1315.047974,61.646492 1318.888916,67.492737 
	C1320.068481,69.288025 1320.849731,71.677551 1320.906860,73.819199 
	C1321.133179,82.289680 1320.967163,90.769966 1321.013306,99.246254 
	C1321.037109,103.639984 1319.336914,106.994812 1315.171631,109.453804 
z"/>
<path fill="#35AAE0" opacity="1.000000" stroke="none" 
	d="
M157.599854,142.100235 
	C178.606232,129.199692 197.617157,113.936897 213.421814,94.889069 
	C216.249863,91.480713 218.997971,88.006027 221.937973,84.370308 
	C236.476593,116.867607 231.417221,178.192307 179.010223,211.804825 
	C128.209274,244.387268 67.721565,226.584610 39.642548,191.371140 
	C45.650951,187.801498 51.608170,184.283905 57.542149,180.727524 
	C60.398983,179.015350 63.294628,177.348770 66.024544,175.448700 
	C69.660568,172.917969 70.396187,168.984192 68.009789,166.007156 
	C65.679085,163.099594 61.376476,162.892365 58.376522,166.022583 
	C52.154785,172.514481 46.170929,179.234467 40.096306,185.867126 
	C39.312416,186.723007 38.570339,187.617188 37.187107,189.209366 
	C17.824043,164.978714 9.522560,137.859558 13.550820,107.889214 
	C19.464638,63.890270 44.005150,33.702789 85.658203,18.279682 
	C120.901321,5.230021 160.238388,14.923384 180.194290,30.967321 
	C152.970047,43.339287 129.633408,60.724705 109.096237,82.742737 
	C74.339561,73.191162 43.126213,95.503181 36.516766,113.196266 
	C53.311481,109.231735 69.444672,109.992508 84.771889,118.011688 
	C84.852661,120.846245 79.900520,123.513817 84.524933,127.080475 
	C83.067673,128.427582 81.575798,129.192184 80.083923,129.956787 
	C80.531647,130.483841 80.979378,131.010895 81.427101,131.537949 
	C83.602829,134.382584 85.778549,137.227219 87.570137,139.569611 
	C82.601921,146.727753 78.056534,153.276688 73.511147,159.825623 
	C74.004532,160.394089 74.497917,160.962540 74.991310,161.531006 
	C79.532936,159.746048 84.187515,158.200775 88.592239,156.125275 
	C97.256149,152.042816 97.194862,151.924591 103.619881,158.760590 
	C103.940231,159.101440 104.427231,159.285645 105.041069,159.671188 
	C106.507721,158.693695 108.000473,157.698822 109.493225,156.703949 
	C110.963982,162.098801 114.636414,159.515778 118.201416,159.396133 
	C122.564293,176.265747 120.663200,192.116562 113.085999,207.483932 
	C136.421173,205.914078 159.585403,171.429214 157.599854,142.100235 
M58.056664,151.542358 
	C55.428509,154.488983 52.800350,157.435608 50.172195,160.382233 
	C52.096069,160.808640 53.733986,160.680511 55.015499,159.937607 
	C63.061882,155.273056 71.093750,150.576065 78.994713,145.671204 
	C82.915375,143.237289 83.645569,139.380875 81.218163,136.414795 
	C78.749504,133.398315 74.991577,133.385284 71.721413,136.746231 
	C67.205734,141.387299 62.911484,146.243805 58.056664,151.542358 
M91.897751,172.377029 
	C92.601837,171.934174 93.331230,171.526596 94.005821,171.042618 
	C97.840988,168.291153 98.714195,165.155396 96.471489,162.271225 
	C94.105827,159.228943 90.504051,159.350433 87.101791,162.981430 
	C80.155190,170.395035 73.373734,177.963364 66.524261,185.467957 
	C66.835358,185.917435 67.146454,186.366898 67.457550,186.816376 
	C75.399521,182.133728 83.341499,177.451080 91.897751,172.377029 
z"/>
<path fill="#344F64" opacity="1.000000" stroke="none" 
	d="
M157.286011,142.152252 
	C159.585403,171.429214 136.421173,205.914078 113.085999,207.483932 
	C120.663200,192.116562 122.564293,176.265747 118.575211,159.385376 
	C131.318207,153.374313 144.145172,147.789291 157.286011,142.152252 
z"/>
<path fill="#344E64" opacity="1.000000" stroke="none" 
	d="
M84.895157,117.759331 
	C69.444672,109.992508 53.311481,109.231735 36.516766,113.196266 
	C43.126213,95.503181 74.339561,73.191162 108.807037,82.898743 
	C101.119652,94.544479 93.069031,106.025726 84.895157,117.759331 
z"/>
<path fill="#375065" opacity="1.000000" stroke="none" 
	d="
M109.701660,156.436523 
	C108.000473,157.698822 106.507721,158.693695 105.041069,159.671188 
	C104.427231,159.285645 103.940231,159.101440 103.619881,158.760590 
	C97.194862,151.924591 97.256149,152.042816 88.592239,156.125275 
	C84.187515,158.200775 79.532936,159.746048 74.991310,161.531006 
	C74.497917,160.962540 74.004532,160.394089 73.511147,159.825623 
	C78.056534,153.276688 82.601921,146.727753 87.570137,139.569611 
	C85.778549,137.227219 83.602829,134.382584 81.427101,131.537949 
	C80.979378,131.010895 80.531647,130.483841 80.083923,129.956787 
	C81.575798,129.192184 83.067673,128.427582 84.779831,127.355072 
	C86.799110,125.889435 88.598106,124.731705 90.729378,123.360138 
	C92.858818,125.788445 95.007988,128.239243 97.268440,130.816956 
	C111.809616,118.880882 126.235329,107.255241 145.051117,103.024216 
	C137.167389,120.627274 122.870308,132.408966 108.168739,144.335861 
	C110.177696,147.029938 112.106995,149.617188 114.123230,152.321030 
	C112.585213,153.725769 111.247650,154.947433 109.701660,156.436523 
z"/>
<path fill="#3E5569" opacity="1.000000" stroke="none" 
	d="
M178.728607,99.610504 
	C165.694168,99.196854 156.682510,91.976616 154.799316,80.809189 
	C152.955780,69.877029 158.768372,59.465538 168.921692,55.513191 
	C181.229919,50.722012 195.001297,57.334206 198.969467,69.940361 
	C202.926529,82.511192 195.387344,95.879463 182.580902,98.968407 
	C181.452438,99.240578 180.290588,99.374336 178.728607,99.610504 
M174.961929,61.120640 
	C166.270996,63.384056 161.468170,68.904022 161.403046,76.704086 
	C161.346283,83.502045 165.914185,89.910461 172.385574,91.813530 
	C178.691162,93.667831 184.337082,92.337624 188.799164,87.436844 
	C193.398407,82.385406 194.365112,76.416595 191.531296,70.260918 
	C188.511414,63.701054 183.051453,60.682266 174.961929,61.120640 
z"/>
<path fill="#F2F9FD" opacity="1.000000" stroke="none" 
	d="
M58.289532,151.275208 
	C62.911484,146.243805 67.205734,141.387299 71.721413,136.746231 
	C74.991577,133.385284 78.749504,133.398315 81.218163,136.414795 
	C83.645569,139.380875 82.915375,143.237289 78.994713,145.671204 
	C71.093750,150.576065 63.061882,155.273056 55.015499,159.937607 
	C53.733986,160.680511 52.096069,160.808640 50.172195,160.382233 
	C52.800350,157.435608 55.428509,154.488983 58.289532,151.275208 
z"/>
<path fill="#F1F8FD" opacity="1.000000" stroke="none" 
	d="
M91.590607,172.572723 
	C83.341499,177.451080 75.399521,182.133728 67.457550,186.816376 
	C67.146454,186.366898 66.835358,185.917435 66.524261,185.467957 
	C73.373734,177.963364 80.155190,170.395035 87.101791,162.981430 
	C90.504051,159.350433 94.105827,159.228943 96.471489,162.271225 
	C98.714195,165.155396 97.840988,168.291153 94.005821,171.042618 
	C93.331230,171.526596 92.601837,171.934174 91.590607,172.572723 
z"/>
<path fill="#F9FAFA" opacity="1.000000" stroke="none" 
	d="
M175.376877,61.085426 
	C183.051453,60.682266 188.511414,63.701054 191.531296,70.260918 
	C194.365112,76.416595 193.398407,82.385406 188.799164,87.436844 
	C184.337082,92.337624 178.691162,93.667831 172.385574,91.813530 
	C165.914185,89.910461 161.346283,83.502045 161.403046,76.704086 
	C161.468170,68.904022 166.270996,63.384056 175.376877,61.085426 
z"/>
</svg>