<svg width="24" height="24" viewBox="0 0 24 24" fill="none" xmlns="http://www.w3.org/2000/svg">
<circle cx="12" cy="12" r="12" fill="#1E90FF"/>
<path d="M19.8018 8.53145C19.7191 8.42989 19.6152 8.34814 19.4976 8.29203C19.38 8.23592 19.2516 8.20686 19.1216 8.20691H19.0986H19.0999H16.8363L17.4639 5.11287C17.4951 4.97608 17.4955 4.83391 17.465 4.69695C17.4345 4.55999 17.3738 4.43178 17.2876 4.32187L17.2889 4.32387C17.2056 4.22262 17.1014 4.14113 16.9837 4.08516C16.8659 4.0292 16.7375 4.00013 16.6074 4H16.5857H16.587C15.9949 4.01933 15.5062 4.44315 15.3799 5.00625L15.3779 5.01491L15.2075 5.85589C15.2022 5.87722 15.193 5.89721 15.1884 5.91853L14.7227 8.20758H10.9118L11.5394 5.11354C11.5707 4.97675 11.5711 4.83458 11.5405 4.69762C11.51 4.56066 11.4494 4.43244 11.3631 4.32253L11.3644 4.32453C11.2812 4.22328 11.177 4.14179 11.0592 4.08583C10.9415 4.02987 10.813 4.00079 10.6829 4.00067H10.6612H10.6625C10.0705 4.01999 9.5817 4.44382 9.45539 5.00691L9.45342 5.01558L9.2758 5.89055C9.2758 5.90054 9.26923 5.9092 9.26725 5.91853L8.80545 8.20758H6.34054C5.74849 8.22691 5.25972 8.65006 5.13276 9.21316L5.13079 9.22182C5.09933 9.35866 5.09878 9.50093 5.1292 9.63802C5.15961 9.7751 5.22019 9.90345 5.30643 10.0135L5.30511 10.0115C5.46826 10.2101 5.71231 10.336 5.98597 10.336H6.00834H6.00702H8.37325L7.70095 13.648H5.23341C4.64136 13.6673 4.15259 14.0911 4.02562 14.6542L4.02365 14.6629C3.9925 14.7994 3.99212 14.9413 4.02252 15.078C4.05293 15.2147 4.11335 15.3428 4.19929 15.4526L4.19798 15.4506C4.36178 15.6491 4.60583 15.7751 4.87949 15.7751H4.90186H4.90054H7.26678L6.63525 18.8858C6.60399 19.0226 6.6036 19.1648 6.63413 19.3017C6.66466 19.4387 6.7253 19.5669 6.81155 19.6768L6.81024 19.6748C6.97404 19.8734 7.2181 19.9993 7.49176 19.9993H7.51346H7.51215C7.79481 19.9899 8.06648 19.8862 8.28491 19.7042C8.50333 19.5222 8.65627 19.2722 8.71993 18.9931L8.72191 18.9844L9.37316 15.7764H13.186L12.5545 18.8871C12.5232 19.0239 12.5228 19.1661 12.5533 19.3031C12.5839 19.44 12.6445 19.5682 12.7308 19.6781L12.7294 19.6761C12.8932 19.8747 13.1373 20 13.411 20H13.4327H13.4313C13.7141 19.991 13.9858 19.8874 14.2043 19.7053C14.4227 19.5233 14.5754 19.273 14.6385 18.9938L14.6404 18.9851L15.2917 15.7771H17.6599C17.9425 15.7677 18.2141 15.6641 18.4325 15.4822C18.6509 15.3004 18.8039 15.0505 18.8677 14.7715L18.8697 14.7628C18.902 14.6262 18.9032 14.484 18.8732 14.3468C18.8432 14.2097 18.7829 14.0812 18.6967 13.9712L18.698 13.9732C18.6147 13.8717 18.5104 13.7901 18.3926 13.734C18.2747 13.6779 18.146 13.6488 18.0158 13.6486H17.9921H17.9934H15.7259L16.3982 10.3367H18.7664C19.049 10.3273 19.3207 10.2235 19.5391 10.0416C19.7576 9.85958 19.9105 9.60958 19.9742 9.33045L19.9761 9.32178C20.0075 9.18489 20.008 9.04259 19.9774 8.90551C19.9469 8.76843 19.8862 8.6401 19.7998 8.53011L19.8018 8.53145ZM9.80865 13.646L10.481 10.334H14.2938L13.6215 13.646H9.80865Z" fill="white"/>
</svg>
