<svg width="24" height="24" viewBox="0 0 24 24" fill="none" xmlns="http://www.w3.org/2000/svg">
<circle cx="12" cy="12" r="12" fill="#1E90FF"/>
<path d="M7.30486 4.09767C6.59007 3.74045 5.79888 4.42248 6.04647 5.18211L7.65206 10.1043C7.69747 10.2434 7.78014 10.3673 7.89107 10.4627C8.002 10.558 8.13695 10.6211 8.28125 10.6451L14.6252 11.7024C14.9592 11.7584 14.9592 12.2384 14.6252 12.2944L8.28165 13.3517C8.13735 13.3757 8.0024 13.4388 7.89147 13.5341C7.78054 13.6295 7.69787 13.7534 7.65246 13.8925L6.04647 18.8175C5.79848 19.5775 6.59007 20.2596 7.30486 19.9023L21.5023 12.8052C22.1659 12.4732 22.1659 11.5264 21.5023 11.1948L7.30486 4.09767Z" fill="white"/>
</svg>
