<svg width="24" height="24" viewBox="0 0 24 24" fill="none" xmlns="http://www.w3.org/2000/svg">
<circle cx="12" cy="12" r="12" fill="#1E90FF"/>
<path d="M19.6402 13.4081C19.7883 13.5123 19.8986 13.6583 19.9559 13.8257C20.0133 13.993 20.0147 14.1734 19.96 14.3415C19.582 15.499 18.9401 16.5611 18.0809 17.4509C17.9566 17.5784 17.7943 17.666 17.6162 17.7015C17.438 17.737 17.2528 17.7187 17.0859 17.6491L15.9219 17.159C15.7947 17.1047 15.6561 17.0796 15.517 17.0859C15.3785 17.0941 15.244 17.1333 15.124 17.2001C15.0041 17.2666 14.9023 17.3595 14.827 17.4711C14.7518 17.5828 14.7052 17.7099 14.6912 17.8422L14.5512 19.059C14.5311 19.2322 14.4556 19.3952 14.3352 19.5257C14.2147 19.6562 14.0552 19.7478 13.8784 19.7879C12.6424 20.0707 11.3539 20.0707 10.1178 19.7879C9.94209 19.7475 9.78359 19.6562 9.66377 19.5264C9.54396 19.3966 9.46862 19.2347 9.44796 19.0624L9.30804 17.8479C9.28401 17.6409 9.18118 17.4497 9.01927 17.3109C8.89279 17.2039 8.73731 17.1334 8.57083 17.1077C8.40435 17.0819 8.23366 17.1019 8.07851 17.1653L6.91448 17.656C6.74806 17.7254 6.56335 17.7438 6.38559 17.7088C6.20784 17.6737 6.0457 17.5868 5.92133 17.46C5.06074 16.5693 4.41797 15.5057 4.03983 14.3467C3.98534 14.1787 3.98679 13.9987 4.044 13.8316C4.1012 13.6644 4.2113 13.5186 4.35897 13.4144L5.38606 12.686C5.49829 12.6071 5.58955 12.5039 5.65246 12.3848C5.71537 12.2657 5.74815 12.134 5.74815 12.0005C5.74815 11.867 5.71537 11.7353 5.65246 11.6162C5.58955 11.4971 5.49829 11.3939 5.38606 11.315L4.35897 10.5878C4.21237 10.4839 4.10295 10.3389 4.0458 10.1729C3.98864 10.0068 3.98656 9.82785 4.03983 9.66062C4.41728 8.50222 5.05992 7.43945 5.92074 6.55011C6.00409 6.46385 6.10532 6.39529 6.21844 6.34959C6.32864 6.30481 6.44709 6.28174 6.56676 6.28174C6.68643 6.28174 6.80488 6.30481 6.91508 6.34959L8.07435 6.83973C8.20188 6.89229 8.34047 6.91547 8.47902 6.9074C8.61757 6.89934 8.75223 6.86026 8.8722 6.79329C8.99218 6.72632 9.09414 6.63333 9.16993 6.52176C9.24572 6.41019 9.29322 6.28314 9.30864 6.15079L9.44915 4.93858C9.46942 4.76348 9.54619 4.59883 9.66874 4.46763C9.79129 4.33643 9.95349 4.24524 10.1327 4.2068C10.7481 4.07669 11.3757 4.00739 12.0059 4C12.6322 4.00686 13.2562 4.07598 13.8677 4.2068C14.0471 4.24544 14.2093 4.33694 14.3318 4.46846C14.4543 4.59999 14.5308 4.76497 14.5507 4.94029L14.6912 6.15137C14.7061 6.28352 14.7532 6.41045 14.8287 6.5219C14.9041 6.63335 15.0059 6.7262 15.1257 6.79294C15.2455 6.85967 15.38 6.89842 15.5183 6.90606C15.6567 6.91369 15.7949 6.88999 15.9219 6.83688L17.0806 6.34731C17.2476 6.2773 17.4332 6.25872 17.6117 6.29412C17.7902 6.32952 17.9529 6.41716 18.0773 6.54496C18.9381 7.43302 19.5804 8.49495 19.957 9.65262C20.0112 9.82046 20.0095 10.0003 19.9522 10.1672C19.8949 10.3341 19.7848 10.4797 19.6373 10.5838L18.6132 11.311C18.5005 11.3892 18.4087 11.4919 18.3453 11.6107C18.282 11.7295 18.2488 11.861 18.2486 11.9945C18.2484 12.1279 18.2811 12.2595 18.344 12.3785C18.407 12.4975 18.4984 12.6006 18.6108 12.6792L19.6402 13.4081ZM11.9999 14.281C12.6316 14.281 13.2373 14.0402 13.684 13.6117C14.1306 13.1832 14.3816 12.602 14.3816 11.9959C14.3816 11.3899 14.1306 10.8087 13.684 10.3802C13.2373 9.95163 12.6316 9.71089 11.9999 9.71089C11.3683 9.71089 10.7625 9.95163 10.3158 10.3802C9.86918 10.8087 9.61825 11.3899 9.61825 11.9959C9.61825 12.602 9.86918 13.1832 10.3158 13.6117C10.7625 14.0402 11.3683 14.281 11.9999 14.281Z" fill="white"/>
</svg>
